# xmcd
#
# Track frame offsets:
#	150
#	12178
#	24518
#	35960
#	48768
#	60593
#	72490
#	84968
#	96623
#	108795
#	121350
#	134118
#	145368
#	155943
#	169593
#	183338
#	196000
#	207868
#
# Disc length: 2918 seconds
#
# Revision: 1
# Processed by: cddbd v1.5.2PL0 Copyright (c) Steve Scherf et al.
# Submitted via: EasyCDDAExtractor 10.0.2.1
#
DISCID=030b6412
DTITLE=Various Artist - Delta Blues - 1951
DYEAR=1951
DGENRE=Blues
TTITLE0=Big Joe Williams - Delta Blues
TTITLE1=Big Joe Williams - Mama don't allow me
TTITLE2=Big Joe Williams - She left me a mule
TTITLE3=Big Joe Williams - Bad heart Blues
TTITLE4=Big Joe Williams - Juanita
TTITLE5=Big Joe Williams - Friends and Pals
TTITLE6=Big Joe Williams - Over hauling Blues
TTITLE7=Big Joe Williams - Whistling Pines
TTITLE8=Luther Huff - 1951 Blues
TTITLE9=Luther Huff - Dirty Disposition
TTITLE10=Luther Huff - Bull Dog Blues
TTITLE11=Luther Huff - Rosalee
TTITLE12=Wllie Love and his three Aces - Everybody's fishing
TTITLE13=Wllie Love and his three Aces - My own Boogle
TTITLE14=Wllie Love and his three Aces - 74 Blues
TTITLE15=Wllie Love and his three Aces - Shady Lane Blues
TTITLE16=Wllie Love and his three Aces - 21 minutes to nine
TTITLE17=Various Artist - Vanity dresser boogie
EXTD=
EXTT0=
EXTT1=
EXTT2=
EXTT3=
EXTT4=
EXTT5=
EXTT6=
EXTT7=
EXTT8=
EXTT9=
EXTT10=
EXTT11=
EXTT12=
EXTT13=
EXTT14=
EXTT15=
EXTT16=
EXTT17=
PLAYORDER=
